<?xml version="1.0" encoding="UTF-8" standalone="no"?><!DOCTYPE svg PUBLIC "-//W3C//DTD SVG 1.1//EN" "http://www.w3.org/Graphics/SVG/1.1/DTD/svg11.dtd"><svg width="100%" height="100%" viewBox="0 0 462 125" version="1.1" xmlns="http://www.w3.org/2000/svg" xmlns:xlink="http://www.w3.org/1999/xlink" xml:space="preserve" xmlns:serif="http://www.serif.com/" style="fill-rule:evenodd;clip-rule:evenodd;stroke-linejoin:round;stroke-miterlimit:2;"><rect id="Artboard1" x="0" y="0" width="461.122" height="124.094" style="fill:none;"/><g id="pinte"><path d="M122.987,37.526c1.58,-7.61 -4.048,-13.802 -12.547,-13.802c-1.468,0 -3.347,0.109 -5.243,0.517c-2.236,-3.582 -6.708,-5.92 -11.734,-5.92c-3.276,0 -6.634,0.938 -9.596,2.634c-2.258,-1.696 -5.227,-2.634 -8.503,-2.634c-5.258,0 -10.567,2.402 -14.166,6.217c-1.551,-0.537 -3.256,-0.814 -5.055,-0.814c-8.498,-0 -16.698,6.192 -18.278,13.802c-1.298,6.251 2.27,11.541 8.295,13.233l-0.451,2.172l-7.697,0c-7.934,0 -15.672,6.184 -17.251,13.785l-2.706,13.034c-1.578,7.601 3.592,13.785 11.526,13.785l7.697,-0l-0.218,1.049c-1.578,7.6 4.043,13.784 12.53,13.784l31.12,-0c8.487,-0 16.677,-6.184 18.255,-13.784l9.046,-43.565c7.226,-1.337 13.602,-6.878 14.976,-13.493Zm-92.161,50.016c-4.244,-0 -6.971,-3.495 -6.079,-7.791l2.707,-13.035c0.892,-4.296 5.07,-7.791 9.314,-7.791l7.696,-0l-5.942,28.617l-7.696,0l-0,-0Zm51.129,14.832l-31.12,0c-4.798,0 -7.975,-3.494 -7.082,-7.79l9.015,-43.416c1.018,-0.134 2.035,-0.351 3.036,-0.654c2.015,3.814 6.326,6.216 11.585,6.216c6.087,0 12.022,-3.177 15.479,-7.776c2.746,1.693 6.431,2.373 9.775,2.373c2.078,0 4.21,-0.377 6.261,-1.102c0.767,0.318 1.58,0.565 2.424,0.747l-9.056,43.612c-0.891,4.296 -5.52,7.79 -10.317,7.79Zm23.998,-57.04c-1.531,0 -2.962,-0.361 -4.139,-1.046c-0.926,-0.537 -2.205,-0.537 -3.353,0c-1.462,0.685 -3.044,1.046 -4.574,1.046c-3.573,0 -7.513,-1.125 -8.261,-3.64c-0.382,-1.286 -1.799,-1.993 -3.402,-1.695c-1.603,0.297 -2.956,1.518 -3.25,2.929c-0.894,4.306 -5.533,7.809 -10.341,7.809c-3.698,-0 -6.569,-2.099 -7.144,-5.224c-0.161,-0.875 -0.795,-1.558 -1.716,-1.851c-0.324,-0.103 -0.67,-0.153 -1.025,-0.153c-0.656,-0 -1.342,0.172 -1.97,0.508c-1.614,0.862 -3.386,1.318 -5.122,1.318c-4.808,-0 -7.992,-3.503 -7.098,-7.809c0.894,-4.306 5.533,-7.809 10.341,-7.809c1.737,0 3.318,0.456 4.574,1.319c0.753,0.516 1.804,0.647 2.848,0.354c1.043,-0.293 1.96,-0.976 2.485,-1.851c1.872,-3.125 5.615,-5.224 9.314,-5.224c2.499,0 4.682,0.965 5.99,2.648c0.501,0.644 1.338,1.014 2.298,1.014c0.961,0 1.951,-0.37 2.72,-1.014c2.007,-1.683 4.592,-2.648 7.09,-2.648c3.442,0 6.656,2.082 7.477,4.844c0.229,0.771 0.843,1.359 1.689,1.618c0.847,0.259 1.848,0.165 2.754,-0.259c1.07,-0.501 2.961,-0.801 5.057,-0.801c4.809,0 7.993,3.503 7.099,7.809c-0.894,4.305 -5.533,7.808 -10.341,7.808Z" style="fill:#fff;fill-rule:nonzero;"/><path d="M89.438,57.876c-1.848,-0 -3.625,1.342 -3.969,2.996l-6.16,29.666c-0.343,1.655 0.876,2.997 2.724,2.997c1.848,-0 3.625,-1.342 3.969,-2.997l6.16,-29.666c0.343,-1.654 -0.876,-2.996 -2.724,-2.996Z" style="fill:#fff;fill-rule:nonzero;"/><path d="M75.635,57.876c-1.848,-0 -3.625,1.342 -3.969,2.996l-6.16,29.666c-0.343,1.655 0.876,2.997 2.724,2.997c1.848,-0 3.625,-1.342 3.969,-2.997l6.16,-29.666c0.343,-1.654 -0.876,-2.996 -2.724,-2.996Z" style="fill:#fff;fill-rule:nonzero;"/><path d="M61.831,57.876c-1.848,-0 -3.624,1.342 -3.968,2.996l-6.16,29.666c-0.344,1.655 0.876,2.997 2.724,2.997c1.848,-0 3.625,-1.342 3.968,-2.997l6.16,-29.666c0.344,-1.654 -0.875,-2.996 -2.724,-2.996Z" style="fill:#fff;fill-rule:nonzero;stroke:#fff;stroke-width:0.24px;"/></g><path d="M138.583,18.342l-9.498,45.787l10.538,-0l3.329,-15.966l4.021,-0c4.853,-0 9.36,-1.299 12.824,-3.834c3.533,-2.535 6.027,-6.247 6.997,-11.077c1.04,-4.768 0.069,-8.541 -2.355,-11.076c-2.494,-2.535 -6.443,-3.834 -11.295,-3.834l-14.561,0Zm8.737,8.656l3.882,0c2.08,0 3.536,0.434 4.299,1.424c0.832,0.991 1.04,2.477 0.485,4.83c-0.416,2.292 -1.248,3.778 -2.496,4.768c-1.178,1.053 -2.773,1.487 -4.853,1.487l-3.883,-0l2.566,-12.509Z" style="fill:#fff;fill-rule:nonzero;"/><path d="M164.376,64.129l10.534,-0l9.495,-45.787l-10.535,0l-9.494,45.787Z" style="fill:#fff;fill-rule:nonzero;"/><path d="M201.257,18.342l-10.675,0l-9.497,45.787l9.289,-0l6.1,-29.328l8.319,29.328l9.427,-0l9.497,-45.787l-9.289,0l-5.545,26.915l-7.626,-26.915Z" style="fill:#fff;fill-rule:nonzero;"/><path d="M226.221,64.129l10.536,-0l7.694,-37.131l8.595,0l1.802,-8.656l-27.726,0l-1.802,8.656l8.595,0l-7.694,37.131Z" style="fill:#fff;fill-rule:nonzero;"/><path d="M254.021,55.403l11.784,0l0.832,8.726l10.675,-0l-5.06,-45.787l-9.705,0l-23.499,45.787l10.675,-0l4.298,-8.726Zm10.883,-8.656l-6.516,0l6.378,-14.976l0.138,14.976Z" style="fill:#fff;fill-rule:nonzero;"/><path d="M279.609,64.129l10.535,-0l7.694,-37.131l8.595,0l1.802,-8.656l-27.725,0l-1.802,8.656l8.594,0l-7.693,37.131Z" style="fill:#fff;fill-rule:nonzero;"/><path d="M312.402,64.129l4.09,-19.679l12.547,-0l-4.09,19.679l10.536,-0l9.497,-45.787l-10.536,0l-3.605,17.452l-12.547,-0l3.605,-17.452l-10.537,0l-9.497,45.787l10.537,-0Z" style="fill:#fff;fill-rule:nonzero;"/><path d="M341.94,64.129l23.982,-0l1.802,-8.656l-13.447,-0l7.694,-37.131l-10.535,0l-9.496,45.787Z" style="fill:#fff;fill-rule:nonzero;"/><path d="M369.742,41.235c-2.98,14.361 1.247,23.76 13.861,23.76c12.625,0 20.871,-9.399 23.85,-23.76c2.981,-14.36 -1.316,-23.759 -13.93,-23.759c-12.625,-0 -20.802,9.399 -23.781,23.698l0,0.061Zm10.809,0c2.289,-11.018 5.758,-15.103 11.168,-15.103c5.411,-0 7.213,4.085 4.925,15.103c-2.289,11.019 -5.827,15.104 -11.237,15.104c-5.411,0 -7.143,-4.085 -4.925,-15.042l0.069,-0.062Z" style="fill:#fff;fill-rule:nonzero;"/><path d="M427.009,18.342l-10.675,0l-9.497,45.787l9.289,-0l6.1,-29.328l8.318,29.328l9.428,-0l9.497,-45.787l-9.289,0l-5.546,26.915l-7.625,-26.915Z" style="fill:#fff;fill-rule:nonzero;"/><path d="M134.821,86.972c0.595,-3.577 -1.188,-5.451 -4.878,-5.451c-3.532,0 -6.428,1.98 -7.063,5.061c-0.714,3.438 1.349,4.678 3.927,5.493c2.737,0.815 4.364,1.736 3.888,4.075c-0.434,1.949 -2.022,3.366 -4.365,3.366c-2.383,0 -3.811,-1.311 -3.296,-3.933l-2.615,-0c-0.635,4.039 1.545,6.125 5.474,6.125c3.691,0 6.904,-2.334 7.618,-5.735c0.794,-3.863 -1.705,-5.174 -3.967,-5.812c-2.459,-0.708 -4.324,-1.488 -3.887,-3.649c0.355,-1.701 1.904,-2.87 3.73,-2.87c2.065,0 3.295,0.886 2.82,3.33l2.614,0Z" style="fill:#fff;fill-rule:nonzero;"/><path d="M135.064,108.368l2.659,-0l1.469,-7.12c0.357,-1.661 0.555,-2.653 0.635,-3.503c0.394,2.407 2.138,3.963 4.719,3.963c4.566,0 8.098,-4.176 9.326,-10.058c1.269,-6.13 -0.832,-10.129 -5.157,-10.129c-2.581,0 -4.804,1.238 -6.511,4.141c0.277,-1.165 0.476,-2.228 0.794,-3.68l-2.461,-0l-5.473,26.386Zm16.153,-16.753c-0.914,4.393 -3.296,7.76 -6.631,7.76c-1.668,-0 -2.7,-0.815 -3.256,-2.126c-0.674,-1.347 -0.674,-3.119 -0.159,-5.634c0.556,-2.552 1.271,-4.323 2.502,-5.634c1.111,-1.311 2.461,-2.126 4.129,-2.126c3.335,-0 4.327,3.366 3.454,7.724l-0.039,0.036Z" style="fill:#fff;fill-rule:nonzero;"/><path d="M156.812,91.615c-1.15,5.527 0.476,10.093 6.268,10.093c5.757,0 9.209,-4.566 10.358,-10.093c1.15,-5.528 -0.436,-10.094 -6.189,-10.094c-5.797,0 -9.288,4.566 -10.397,10.058l-0.04,0.036Zm2.774,-0c1.072,-5.138 3.534,-7.866 7.187,-7.866c3.692,-0 4.961,2.728 3.891,7.866c-1.033,5.137 -3.494,7.866 -7.107,7.866c-3.733,-0 -5.002,-2.729 -3.971,-7.831l0,-0.035Z" style="fill:#fff;fill-rule:nonzero;"/><path d="M175.545,101.248l2.658,-0l2.143,-10.342c1.031,-4.855 4.086,-6.874 5.911,-6.874c0.357,-0 0.674,0.071 0.952,0.248l0.555,-2.759c-1.904,0.071 -4.84,0.743 -6.665,4.495c0.318,-1.166 0.556,-2.263 0.913,-4.034l-2.46,-0l-4.007,19.266Z" style="fill:#fff;fill-rule:nonzero;"/><path d="M187.769,101.248l2.658,-0l3.53,-17.039l2.975,0l0.476,-2.227l-2.975,-0l1.269,-6.093l-2.657,0l-1.27,6.093l-3.014,-0l-0.476,2.227l3.014,0l-3.53,17.039Z" style="fill:#fff;fill-rule:nonzero;"/><path d="M220.507,86.972c0.595,-3.577 -1.189,-5.451 -4.878,-5.451c-3.533,0 -6.429,1.98 -7.064,5.061c-0.714,3.438 1.349,4.678 3.928,5.493c2.737,0.815 4.363,1.736 3.887,4.075c-0.434,1.949 -2.022,3.366 -4.365,3.366c-2.383,0 -3.811,-1.311 -3.296,-3.933l-2.615,-0c-0.634,4.039 1.545,6.125 5.474,6.125c3.691,0 6.905,-2.334 7.619,-5.735c0.793,-3.863 -1.706,-5.174 -3.967,-5.812c-2.46,-0.708 -4.324,-1.488 -3.888,-3.649c0.355,-1.701 1.904,-2.87 3.731,-2.87c2.064,0 3.294,0.886 2.819,3.33l2.615,0Z" style="fill:#fff;fill-rule:nonzero;"/><path d="M222.218,101.248l2.659,-0l2.262,-10.946c0.556,-2.621 1.23,-3.826 2.381,-4.889c1.548,-1.452 3.136,-1.558 4.128,-1.558c0.913,-0 2.302,0.212 2.897,1.24c0.555,1.027 0.516,2.267 0.119,4.18l-2.5,11.973l2.659,-0l2.615,-12.682c0.515,-2.409 0.476,-4.109 -0.476,-5.312c-0.832,-1.132 -2.298,-1.733 -4.282,-1.733c-2.659,0 -5.08,1.026 -6.509,3.503c0.317,-1.169 0.516,-2.159 0.754,-3.184l1.389,-6.801l-2.659,-0l-5.437,26.209Z" style="fill:#fff;fill-rule:nonzero;"/><path d="M242.775,91.615c-1.15,5.527 0.476,10.093 6.268,10.093c5.757,0 9.209,-4.566 10.358,-10.093c1.15,-5.528 -0.436,-10.094 -6.189,-10.094c-5.797,0 -9.288,4.566 -10.397,10.058l-0.04,0.036Zm2.774,-0c1.072,-5.138 3.534,-7.866 7.187,-7.866c3.692,-0 4.961,2.728 3.891,7.866c-1.032,5.137 -3.494,7.866 -7.107,7.866c-3.732,-0 -5.002,-2.729 -3.971,-7.831l0,-0.035Z" style="fill:#fff;fill-rule:nonzero;"/><path d="M260.04,108.368l2.659,-0l1.469,-7.12c0.357,-1.661 0.555,-2.653 0.635,-3.503c0.394,2.407 2.138,3.963 4.719,3.963c4.566,0 8.098,-4.176 9.326,-10.058c1.269,-6.13 -0.832,-10.129 -5.157,-10.129c-2.581,0 -4.804,1.238 -6.512,4.141c0.278,-1.165 0.477,-2.228 0.795,-3.68l-2.461,-0l-5.473,26.386Zm16.153,-16.753c-0.914,4.393 -3.296,7.76 -6.631,7.76c-1.668,-0 -2.7,-0.815 -3.256,-2.126c-0.674,-1.347 -0.674,-3.119 -0.159,-5.634c0.556,-2.552 1.271,-4.323 2.502,-5.634c1.111,-1.311 2.461,-2.126 4.129,-2.126c3.335,-0 4.327,3.366 3.454,7.724l-0.039,0.036Z" style="fill:#fff;fill-rule:nonzero;"/></svg>